<svg xmlns="http://www.w3.org/2000/svg" viewBox="0 0 64 64">
  <defs>
    <linearGradient id="bg" x1="0" y1="0" x2="1" y2="1">
      <stop offset="0%" stop-color="#0e1a2f" />
      <stop offset="100%" stop-color="#1f3358" />
    </linearGradient>
    <linearGradient id="car" x1="0" y1="0" x2="1" y2="1">
      <stop offset="0%" stop-color="#ff8a3d" />
      <stop offset="100%" stop-color="#ff4f3a" />
    </linearGradient>
  </defs>

  <rect width="64" height="64" rx="14" fill="url(#bg)" />
  <rect x="8" y="44" width="48" height="4" rx="2" fill="#8aa2c7" opacity="0.45" />

  <path
    d="M14 38h36c1 0 2 .8 2 1.8V43c0 1-.8 1.8-1.8 1.8H13.8A1.8 1.8 0 0 1 12 43v-3.2c0-1 .8-1.8 2-1.8z"
    fill="url(#car)"
  />
  <path
    d="M20 30c.4-1.6 1.8-2.8 3.5-2.8h17c1.5 0 2.9 1 3.4 2.5l1.7 5.3H18.4L20 30z"
    fill="url(#car)"
  />

  <rect x="24" y="30" width="7" height="4" rx="1" fill="#cce9ff" />
  <rect x="33" y="30" width="7" height="4" rx="1" fill="#cce9ff" />

  <circle cx="22" cy="45" r="4.3" fill="#0c111b" />
  <circle cx="42" cy="45" r="4.3" fill="#0c111b" />
  <circle cx="22" cy="45" r="1.8" fill="#9ab3d4" />
  <circle cx="42" cy="45" r="1.8" fill="#9ab3d4" />
</svg>
